<?xml version="1.0" encoding="UTF-8" standalone="no"?>
<!DOCTYPE svg PUBLIC "-//W3C//DTD SVG 20010904//EN"
              "http://www.w3.org/TR/2001/REC-SVG-20010904/DTD/svg10.dtd">

<svg xmlns="http://www.w3.org/2000/svg"
     width="7.11111in" height="7.11111in"
     viewBox="0 0 512 512">
  <path id="Selection #2"
        fill="none" stroke="black" stroke-width="1"
        d="M 121.00,404.00
           C 121.00,404.00 121.00,429.00 121.00,429.00
             120.94,431.77 120.86,436.14 117.00,436.14
             115.75,436.14 114.74,435.56 114.02,434.55
             112.78,432.82 113.00,429.10 113.00,427.00
             113.00,427.00 113.00,371.00 113.00,371.00
             113.01,363.78 112.85,361.15 121.00,361.00
             121.00,361.00 129.00,361.00 129.00,361.00
             141.08,361.17 137.98,368.45 135.69,369.98
             133.36,371.53 124.16,371.00 121.00,371.00
             121.00,371.00 121.00,394.00 121.00,394.00
             123.27,394.00 129.94,393.74 131.69,394.60
             134.80,396.13 134.33,401.22 131.69,402.98
             129.59,404.38 123.65,404.00 121.00,404.00 Z
           M 373.00,404.00
           C 373.00,404.00 373.00,429.00 373.00,429.00
             372.94,431.91 373.00,435.69 369.05,435.72
             367.89,435.73 366.91,435.35 366.17,434.43
             364.76,432.64 365.00,428.25 365.00,426.00
             365.00,426.00 365.00,372.00 365.00,372.00
             365.00,369.75 364.76,365.36 366.17,363.57
             367.77,361.57 371.65,361.63 372.84,365.15
             372.84,365.15 372.84,394.00 372.84,394.00
             375.85,394.00 381.18,394.53 383.26,392.40
             385.32,390.29 385.00,385.77 385.00,383.00
             385.00,383.00 385.00,362.00 385.00,362.00
             385.00,362.00 392.00,362.00 392.00,362.00
             392.00,362.00 392.00,436.00 392.00,436.00
             392.00,436.00 385.00,436.00 385.00,436.00
             385.00,436.00 385.00,413.00 385.00,413.00
             384.96,410.63 385.04,407.42 383.26,405.60
             381.18,403.47 375.85,404.00 373.00,404.00 Z
           M 338.01,362.74
           C 351.15,359.54 356.70,366.38 356.99,379.00
             357.05,381.71 357.42,389.28 352.30,386.58
             348.52,384.58 350.95,369.14 342.10,371.84
             336.85,373.45 337.01,380.67 337.00,385.00
             337.00,385.00 337.00,413.00 337.00,413.00
             337.01,417.33 336.85,424.55 342.10,426.16
             350.21,428.63 349.58,414.44 351.02,412.32
             351.69,411.33 352.68,410.63 353.91,410.63
             357.74,410.63 357.05,417.50 356.99,420.00
             356.73,429.93 352.71,436.56 342.00,435.96
             330.86,435.32 329.04,422.92 329.22,414.00
             329.22,414.00 329.22,377.00 329.22,377.00
             330.47,370.45 331.92,366.07 338.01,362.74 Z
           M 305.00,427.00
           C 305.00,427.00 314.00,427.00 314.00,427.00
             317.50,427.07 321.71,427.34 321.71,431.96
             321.71,433.14 321.34,434.22 320.40,434.98
             318.44,436.54 307.95,436.02 305.00,436.00
             302.87,435.98 299.49,436.26 298.02,434.40
             296.77,432.81 297.00,428.99 297.00,427.00
             297.00,427.00 297.00,370.00 297.00,370.00
             297.06,360.73 298.49,362.12 311.00,362.00
             313.47,361.97 318.55,361.20 320.40,362.83
             321.32,363.63 321.71,364.83 321.71,366.02
             321.71,370.66 317.52,370.93 314.00,371.00
             314.00,371.00 305.00,371.00 305.00,371.00
             305.00,371.00 305.00,394.00 305.00,394.00
             307.39,394.00 314.89,393.72 316.70,394.60
             319.71,396.08 319.71,401.74 316.70,403.26
             314.67,404.29 307.60,404.00 305.00,404.00
             305.00,404.00 305.00,427.00 305.00,427.00 Z
           M 271.00,371.00
           C 268.68,371.00 264.33,371.29 262.37,369.98
             259.81,368.17 259.58,363.86 262.37,362.02
             264.15,360.79 267.82,361.00 270.00,361.00
             270.00,361.00 280.00,361.00 280.00,361.00
             283.79,361.02 289.25,360.57 288.80,366.02
             288.29,372.30 282.30,369.89 279.60,372.60
             277.68,374.53 278.01,378.45 278.00,381.00
             278.00,381.00 278.00,436.00 278.00,436.00
             270.51,435.74 271.01,433.92 271.00,427.00
             271.00,427.00 271.00,371.00 271.00,371.00 Z
           M 228.00,413.00
           C 228.00,413.00 226.95,424.00 226.95,424.00
             227.12,426.97 227.95,430.97 226.95,433.77
             225.74,436.67 222.76,437.20 221.02,434.67
             219.88,433.02 220.01,429.95 220.00,428.00
             220.00,428.00 220.00,370.00 220.00,370.00
             220.00,368.08 219.75,364.25 220.99,362.74
             223.88,359.24 227.07,362.99 227.86,366.02
             230.77,377.15 231.79,399.96 236.00,409.00
             236.00,409.00 239.25,390.00 239.25,390.00
             239.25,390.00 243.56,364.15 243.56,364.15
             245.12,360.97 250.92,358.56 251.00,370.00
             251.00,370.00 251.00,427.00 251.00,427.00
             250.99,429.92 251.48,436.37 247.05,436.37
             245.79,436.37 244.86,435.69 244.17,434.68
             242.78,432.63 243.00,428.44 243.00,426.00
             242.99,420.82 243.43,416.03 242.00,411.00
             242.00,411.00 240.29,422.00 240.29,422.00
             240.29,422.00 239.41,430.00 239.41,430.00
             239.07,431.90 238.66,434.88 236.71,435.83
             233.92,437.18 232.47,434.10 231.86,431.98
             230.01,425.51 231.93,421.42 228.00,413.00 Z
           M 191.00,436.00
           C 184.17,435.76 184.04,434.59 184.00,428.00
             184.00,428.00 184.00,371.00 184.00,371.00
             184.02,362.09 184.76,360.81 194.00,361.01
             196.64,361.07 199.45,361.35 202.00,362.06
             213.04,365.13 213.30,381.76 211.53,391.00
             211.53,391.00 208.87,400.00 208.87,400.00
             208.74,402.07 210.41,406.44 210.91,409.00
             212.26,416.04 212.01,419.02 212.00,426.00
             212.00,428.25 212.24,432.64 210.83,434.43
             209.22,436.45 205.78,436.10 204.60,433.69
             202.94,430.29 205.25,415.31 202.99,410.04
             201.69,407.01 197.79,403.53 194.23,404.70
             190.48,405.94 191.01,411.88 191.00,415.00
             191.00,415.00 191.00,436.00 191.00,436.00 Z
           M 193.31,371.60
           C 192.56,372.24 192.34,371.80 191.60,373.31
             191.01,374.52 191.03,376.66 191.00,378.00
             190.89,383.97 188.74,399.75 199.89,393.69
             206.87,389.89 208.73,367.94 193.31,371.60 Z
           M 178.00,436.00
           C 169.30,435.69 170.77,432.55 168.80,423.00
             167.91,418.68 166.77,414.04 161.05,415.33
             154.56,416.80 155.87,427.94 153.85,432.85
             152.84,435.34 149.91,436.86 147.64,434.97
             145.37,433.10 147.90,422.88 148.42,420.00
             148.42,420.00 156.75,376.00 156.75,376.00
             157.31,372.66 157.86,360.38 163.71,362.66
             166.87,363.89 168.46,377.50 169.08,381.00
             171.40,394.11 177.96,424.31 178.00,436.00 Z
           M 163.00,387.00
           C 163.00,387.00 159.00,404.98 159.00,404.98
             160.72,405.43 162.77,406.21 164.39,404.98
             167.04,402.92 163.94,390.06 163.00,387.00 Z
           M 247.00,73.00
           C 247.03,69.48 246.99,66.28 248.57,63.00
             251.75,56.43 258.94,53.57 264.47,59.34
             268.24,63.28 268.88,67.83 269.00,73.00
             271.06,71.78 272.57,70.72 275.00,70.28
             277.95,69.74 280.59,70.37 282.89,72.31
             291.27,79.37 286.95,90.34 285.00,99.00
             298.35,102.50 297.65,119.94 292.63,130.00
             291.08,133.09 286.00,139.72 285.62,142.00
             285.62,142.00 291.00,160.00 291.00,160.00
             293.80,158.00 300.09,153.37 300.75,149.91
             300.75,149.91 298.33,136.00 298.33,136.00
             297.47,126.02 303.15,113.41 315.00,116.00
             315.02,110.62 315.18,104.57 318.65,100.11
             323.50,93.87 330.62,95.27 334.00,102.00
             334.00,102.00 336.00,102.00 336.00,102.00
             339.91,94.75 348.62,89.58 353.55,99.02
             355.84,103.41 354.68,110.04 355.00,115.00
             362.76,113.62 366.70,119.86 366.54,127.00
             366.39,133.58 363.21,138.29 359.00,143.00
             367.21,150.85 364.75,163.55 356.91,170.79
             352.56,174.80 347.85,175.46 345.84,178.39
             344.46,180.90 345.66,184.21 345.84,187.00
             345.66,189.70 344.58,197.37 343.79,200.00
             340.38,211.42 332.45,218.70 326.00,228.00
             326.00,228.00 364.00,243.11 364.00,243.11
             366.82,244.54 374.28,247.52 375.39,250.22
             376.86,253.84 373.76,258.96 371.99,262.00
             366.86,270.79 360.89,279.15 354.21,286.83
             325.91,319.34 284.64,339.93 241.00,333.70
             235.13,332.86 228.62,330.87 223.00,329.00
             195.11,319.71 173.15,303.32 155.23,280.00
             149.58,272.63 146.02,267.12 141.59,259.00
             140.12,256.31 137.79,252.50 139.38,249.39
             140.72,246.78 149.12,243.14 152.00,241.78
             164.06,236.09 176.41,232.20 189.00,228.00
             189.00,228.00 179.76,216.00 179.76,216.00
             170.69,203.62 167.29,192.14 170.00,177.00
             158.73,173.79 150.02,165.47 151.11,153.00
             151.60,147.29 154.70,145.26 154.66,142.66
             154.61,140.25 151.66,138.48 149.48,133.00
             147.16,127.18 147.84,118.77 154.10,115.59
             156.04,114.62 158.85,114.33 161.00,114.00
             159.69,109.39 159.11,102.28 161.85,98.06
             166.98,90.18 175.75,95.28 179.00,102.00
             179.00,102.00 181.00,102.00 181.00,102.00
             184.38,95.27 192.27,93.64 196.78,100.19
             199.98,104.84 199.71,110.72 201.00,116.00
             213.17,113.72 217.87,127.15 216.57,137.00
             216.19,139.89 214.20,147.81 214.77,149.99
             215.63,153.27 221.28,157.95 224.00,160.00
             224.00,160.00 230.02,142.00 230.02,142.00
             229.68,139.56 224.35,133.30 222.63,130.00
             218.54,122.11 217.54,109.01 224.22,102.21
             226.30,100.10 228.38,99.20 231.00,98.00
             227.25,89.44 224.80,68.17 240.00,70.24
             242.57,70.59 244.72,71.85 247.00,73.00 Z
           M 258.00,64.20
           C 252.26,66.42 252.03,74.63 252.00,80.00
             252.00,80.00 252.00,84.00 252.00,84.00
             251.95,86.49 251.48,93.16 247.20,91.09
             243.73,89.40 243.29,82.11 240.36,79.62
             236.16,76.05 234.09,81.49 234.03,85.00
             233.93,91.27 236.22,94.61 238.74,100.00
             239.72,102.11 241.37,105.39 239.94,107.64
             236.90,112.40 229.64,103.19 226.15,111.11
             223.50,117.11 227.93,133.05 235.01,134.10
             237.63,134.49 240.81,131.75 243.00,130.47
             246.56,128.39 251.86,126.47 256.00,126.21
             260.60,125.92 266.99,128.15 271.00,130.35
             272.82,131.34 276.09,133.77 278.00,133.96
             285.73,134.76 290.33,118.11 288.57,112.04
             285.53,101.60 275.70,114.69 274.05,106.88
             272.98,101.82 285.01,87.94 279.83,80.32
             274.74,72.85 270.06,88.23 268.92,89.84
             265.82,94.22 263.53,90.74 263.03,87.00
             263.03,87.00 263.03,82.00 263.03,82.00
             263.03,82.00 263.03,78.00 263.03,78.00
             262.94,73.28 262.97,66.17 258.00,64.20 Z
           M 168.30,102.91
           C 161.05,107.67 172.65,120.96 170.36,126.84
             167.50,134.17 157.29,117.09 154.79,126.15
             152.84,133.17 165.95,139.20 167.12,144.00
             168.53,149.78 160.76,147.88 158.18,152.23
             154.08,159.12 165.57,170.45 170.90,168.64
             174.91,167.27 176.10,159.78 184.01,153.53
             187.81,150.53 193.17,147.93 198.00,147.31
             200.77,146.96 204.58,147.72 206.77,146.60
             212.18,143.84 211.29,130.22 208.15,126.31
             202.47,119.26 197.62,132.54 194.02,127.63
             191.09,123.63 197.08,106.91 189.83,104.49
             187.43,103.69 186.13,106.13 185.57,108.02
             184.65,111.14 186.23,119.96 181.96,119.96
             179.47,119.96 177.99,115.87 177.20,114.00
             175.28,109.46 173.64,103.98 168.30,102.91 Z
           M 321.00,131.00
           C 315.30,127.89 308.55,118.66 305.29,131.00
             305.29,131.00 305.29,135.00 305.29,135.00
             304.86,139.12 305.24,144.62 309.21,146.98
             311.47,148.32 315.29,147.87 318.00,148.32
             321.54,148.92 325.97,150.64 329.00,152.56
             341.11,160.23 340.78,174.19 350.98,166.57
             352.27,165.61 353.61,164.24 354.61,162.98
             355.98,161.26 357.18,159.19 357.59,157.00
             359.30,147.90 348.92,150.77 347.82,145.86
             347.16,142.87 350.05,140.74 352.04,139.14
             355.58,136.29 361.29,131.36 360.39,126.13
             358.98,118.01 349.25,131.08 345.60,128.26
             341.69,125.23 348.13,116.68 348.82,109.00
             349.43,102.33 345.96,101.04 342.79,104.32
             339.59,107.62 338.44,113.07 336.29,116.96
             335.61,118.19 334.64,119.96 333.00,119.96
             327.25,119.96 331.06,107.50 327.43,105.08
             324.10,102.86 322.41,107.70 321.94,110.00
             320.20,118.49 323.31,118.11 321.00,131.00 Z
           M 285.00,178.00
           C 285.00,178.00 285.68,168.00 285.68,168.00
             285.22,161.97 283.83,155.38 281.02,150.00
             274.56,137.67 260.38,129.73 247.00,136.42
             244.38,137.73 241.32,140.04 239.32,142.17
             225.49,156.98 227.48,176.86 235.00,194.00
             235.00,194.00 248.00,192.00 248.00,192.00
             244.49,193.86 239.29,197.07 237.95,201.04
             236.98,203.89 239.95,214.34 241.85,216.69
             243.02,218.14 244.22,218.60 246.02,218.84
             246.02,218.84 260.00,218.01 260.00,218.01
             263.26,218.18 268.88,219.76 271.58,218.01
             274.45,216.09 276.96,204.71 278.16,201.00
             279.96,195.46 282.57,190.18 278.69,185.00
             275.49,180.74 270.39,176.97 266.00,174.00
             266.00,174.00 285.00,178.00 285.00,178.00 Z
           M 224.00,181.00
           C 222.04,167.11 214.20,155.69 199.00,156.02
             193.44,156.13 189.31,157.56 185.09,161.33
             171.02,173.91 172.90,195.94 183.16,210.00
             186.50,214.58 190.45,220.23 196.00,222.00
             196.00,222.00 202.00,212.00 202.00,212.00
             202.00,212.00 199.00,224.00 199.00,224.00
             199.00,224.00 200.00,225.00 200.00,225.00
             200.00,225.00 217.00,221.87 217.00,221.87
             217.00,221.87 225.39,219.41 225.39,219.41
             225.39,219.41 226.17,212.00 226.17,212.00
             226.17,212.00 225.00,195.00 225.00,195.00
             225.00,195.00 223.40,187.02 223.40,187.02
             223.40,187.02 208.00,186.00 208.00,186.00
             208.00,186.00 224.00,181.00 224.00,181.00 Z
           M 319.00,223.00
           C 323.58,220.64 326.00,216.97 329.20,213.00
             338.32,201.65 341.25,193.52 338.86,179.00
             337.09,168.28 329.43,157.59 318.00,156.18
             306.89,154.82 298.85,160.33 293.82,170.00
             292.59,172.36 290.55,177.07 291.64,179.70
             292.55,181.93 302.97,185.32 306.00,186.87
             302.48,186.84 295.15,185.30 292.29,186.87
             289.81,187.99 289.77,191.53 289.21,194.00
             289.21,194.00 289.21,205.00 289.21,205.00
             289.21,205.00 288.17,214.00 288.17,214.00
             288.02,216.04 287.89,218.55 289.60,220.02
             291.26,221.45 295.81,221.81 298.00,222.13
             298.00,222.13 315.00,225.00 315.00,225.00
             315.00,225.00 314.00,213.00 314.00,213.00
             314.00,213.00 319.00,223.00 319.00,223.00 Z
           M 360.00,269.00
           C 361.79,265.81 368.03,257.52 367.19,254.22
             366.49,251.48 360.47,249.45 358.00,248.24
             349.93,244.30 337.61,239.53 329.00,236.88
             298.66,227.56 279.33,225.95 248.00,226.00
             239.24,226.01 225.76,227.73 217.00,229.25
             212.00,230.12 206.94,230.63 203.00,234.00
             203.00,234.00 231.00,233.00 231.00,233.00
             231.00,233.00 243.00,233.91 243.00,233.91
             267.68,235.64 286.46,239.54 310.00,247.03
             321.73,250.76 332.91,256.28 344.00,261.55
             349.35,264.09 354.15,267.81 360.00,269.00 Z
           M 354.00,275.00
           C 324.20,257.84 292.16,246.93 258.00,242.85
             258.00,242.85 237.00,241.00 237.00,241.00
             237.00,241.00 218.00,241.00 218.00,241.00
             210.47,241.09 186.63,243.18 181.00,247.00
             181.00,247.00 214.00,251.42 214.00,251.42
             236.50,255.48 254.91,261.24 276.00,270.01
             288.50,275.21 301.49,282.68 313.00,289.81
             315.66,291.46 327.17,299.48 329.00,299.72
             332.03,300.10 334.87,297.08 337.00,295.27
             342.52,290.56 351.18,281.60 354.00,275.00 Z
           M 323.00,307.00
           C 321.36,301.91 317.43,300.12 313.00,297.45
             313.00,297.45 289.00,284.25 289.00,284.25
             257.77,268.63 226.97,258.36 192.00,255.91
             192.00,255.91 182.00,255.00 182.00,255.00
             175.73,254.93 168.88,254.49 163.00,257.00
             163.00,257.00 187.00,263.35 187.00,263.35
             207.03,269.60 227.90,277.75 246.00,288.45
             246.00,288.45 278.00,309.76 278.00,309.76
             281.64,312.46 288.94,319.97 293.00,320.58
             295.81,321.01 300.42,318.87 303.00,317.69
             303.00,317.69 323.00,307.00 323.00,307.00 Z
           M 283.00,322.00
           C 283.00,322.00 262.00,307.09 262.00,307.09
             238.75,292.13 213.60,279.36 187.00,271.58
             178.83,269.18 161.01,263.38 153.00,265.00
             157.82,274.84 169.68,288.04 178.00,295.28
             198.86,313.45 221.91,325.68 250.00,327.04
             250.00,327.04 259.00,327.68 259.00,327.68
             266.71,327.10 275.76,326.64 283.00,324.00
             283.00,324.00 283.00,322.00 283.00,322.00 Z" />
</svg>
